<mxfile host="Electron" agent="Mozilla/5.0 (Windows NT 10.0; Win64; x64) AppleWebKit/537.36 (KHTML, like Gecko) draw.io/28.2.5 Chrome/138.0.7204.251 Electron/37.6.1 Safari/537.36" version="28.2.5" pages="5">
  <diagram name="Plumbing View" id="qtGz52rhQTPplnbjfSBV">
    <mxGraphModel dx="1412" dy="827" grid="1" gridSize="10" guides="1" tooltips="1" connect="1" arrows="1" fold="1" page="1" pageScale="1" pageWidth="1169" pageHeight="827" math="0" shadow="0">
      <root>
        <mxCell id="0" />
        <mxCell id="1" parent="0" />
        <mxCell id="54yuC4Lk0FtonxKzlv9x-87" value="Sea Water&lt;br&gt;Intake Seacock" style="rounded=1;whiteSpace=wrap;html=1;fillColor=#ffe6cc;strokeColor=#d79b00;" vertex="1" parent="1">
          <mxGeometry x="63" y="684" width="120" height="60" as="geometry" />
        </mxCell>
        <mxCell id="54yuC4Lk0FtonxKzlv9x-88" value="Pressurized&lt;br&gt;Freshwater&lt;br&gt;System" style="rounded=1;whiteSpace=wrap;html=1;fillColor=#b1ddf0;strokeColor=#10739e;" vertex="1" parent="1">
          <mxGeometry x="213" y="684" width="120" height="60" as="geometry" />
        </mxCell>
        <mxCell id="54yuC4Lk0FtonxKzlv9x-89" value="Danfoss App&lt;div&gt;High Pressure&lt;br&gt;Pump&lt;/div&gt;" style="rounded=1;whiteSpace=wrap;html=1;fillColor=#dae8fc;strokeColor=#6c8ebf;" vertex="1" parent="1">
          <mxGeometry x="530" y="268" width="110" height="60" as="geometry" />
        </mxCell>
        <mxCell id="54yuC4Lk0FtonxKzlv9x-90" value="Pickling Bucket" style="rounded=1;whiteSpace=wrap;html=1;fillColor=#e1d5e7;strokeColor=#9673a6;" vertex="1" parent="1">
          <mxGeometry x="43" y="195" width="120" height="60" as="geometry" />
        </mxCell>
        <mxCell id="54yuC4Lk0FtonxKzlv9x-93" value="Solenoid Valve&lt;br&gt;or motorized ball valve" style="rounded=1;whiteSpace=wrap;html=1;fillColor=#d5e8d4;strokeColor=#82b366;fontSize=9;" vertex="1" parent="1">
          <mxGeometry x="233" y="384" width="80" height="60" as="geometry" />
        </mxCell>
        <mxCell id="54yuC4Lk0FtonxKzlv9x-94" value="" style="endArrow=none;html=1;rounded=0;strokeColor=#0000FF;strokeWidth=4;exitX=0.5;exitY=1;exitDx=0;exitDy=0;entryX=0.5;entryY=0;entryDx=0;entryDy=0;" edge="1" parent="1" source="54yuC4Lk0FtonxKzlv9x-93" target="54yuC4Lk0FtonxKzlv9x-105">
          <mxGeometry width="50" height="50" relative="1" as="geometry">
            <mxPoint x="273" y="484" as="sourcePoint" />
            <mxPoint x="273" y="524" as="targetPoint" />
          </mxGeometry>
        </mxCell>
        <mxCell id="54yuC4Lk0FtonxKzlv9x-95" value="Reverse&lt;br&gt;Osmosis&lt;br&gt;Membrane" style="rounded=1;whiteSpace=wrap;html=1;fillColor=#dae8fc;strokeColor=#6c8ebf;" vertex="1" parent="1">
          <mxGeometry x="662" y="319" width="147" height="60" as="geometry" />
        </mxCell>
        <mxCell id="54yuC4Lk0FtonxKzlv9x-97" value="High Pressure Sensor&lt;br style=&quot;font-size: 9px;&quot;&gt;0-1000psi" style="rounded=1;whiteSpace=wrap;html=1;fillColor=#d5e8d4;strokeColor=#82b366;fontSize=9;" vertex="1" parent="1">
          <mxGeometry x="450" y="421" width="100" height="50" as="geometry" />
        </mxCell>
        <mxCell id="54yuC4Lk0FtonxKzlv9x-99" value="Divert Valve&lt;br&gt;3-Way Valve&lt;br&gt;with 3D Printed&lt;br&gt;Servo Mount" style="rounded=1;whiteSpace=wrap;html=1;fillColor=#d5e8d4;strokeColor=#82b366;" vertex="1" parent="1">
          <mxGeometry x="888" y="592" width="120" height="75" as="geometry" />
        </mxCell>
        <mxCell id="54yuC4Lk0FtonxKzlv9x-100" value="TDS Sensor - Human&lt;br&gt;+&lt;br&gt;TDS Sensor - Digital&lt;br&gt;+&lt;br&gt;Product Flowmeter" style="rounded=1;whiteSpace=wrap;html=1;fillColor=#d5e8d4;strokeColor=#82b366;fontSize=9;" vertex="1" parent="1">
          <mxGeometry x="1018" y="346" width="100" height="68" as="geometry" />
        </mxCell>
        <mxCell id="54yuC4Lk0FtonxKzlv9x-101" value="Waste Brine&lt;br&gt;Through-hull" style="rounded=1;whiteSpace=wrap;html=1;fillColor=#60a917;fontColor=#ffffff;strokeColor=#2D7600;" vertex="1" parent="1">
          <mxGeometry x="687" y="710" width="105" height="60" as="geometry" />
        </mxCell>
        <mxCell id="54yuC4Lk0FtonxKzlv9x-103" value="Motor&amp;nbsp;&lt;br style=&quot;font-size: 9px;&quot;&gt;Mounted on&lt;br style=&quot;font-size: 9px;&quot;&gt;Pressure Valve&lt;br style=&quot;font-size: 9px;&quot;&gt;w/ 3D printed adapter" style="rounded=1;whiteSpace=wrap;html=1;fillColor=#d5e8d4;strokeColor=#82b366;fontSize=9;" vertex="1" parent="1">
          <mxGeometry x="680" y="410" width="111" height="60" as="geometry" />
        </mxCell>
        <mxCell id="54yuC4Lk0FtonxKzlv9x-104" value="Freshwater&lt;br&gt;Tank" style="rounded=1;whiteSpace=wrap;html=1;fillColor=#b1ddf0;strokeColor=#10739e;" vertex="1" parent="1">
          <mxGeometry x="908" y="684" width="80" height="60" as="geometry" />
        </mxCell>
        <mxCell id="54yuC4Lk0FtonxKzlv9x-105" value="10&quot; Carbon Filter" style="rounded=1;whiteSpace=wrap;html=1;fontSize=9;fillColor=#f5f5f5;fontColor=#333333;strokeColor=#666666;" vertex="1" parent="1">
          <mxGeometry x="233" y="481" width="80" height="60" as="geometry" />
        </mxCell>
        <mxCell id="54yuC4Lk0FtonxKzlv9x-106" value="Shutoff Valve" style="rounded=1;whiteSpace=wrap;html=1;fontSize=9;fillColor=#f5f5f5;fontColor=#333333;strokeColor=#666666;" vertex="1" parent="1">
          <mxGeometry x="233" y="603.5" width="80" height="33" as="geometry" />
        </mxCell>
        <mxCell id="54yuC4Lk0FtonxKzlv9x-107" value="&lt;span style=&quot;font-size: 40px;&quot;&gt;Aqua-O-M&lt;/span&gt;&lt;span style=&quot;color: rgba(0, 0, 0, 0); font-family: monospace; font-size: 0px; text-align: start; text-wrap-mode: nowrap;&quot;&gt;%3CmxGraphModel%3E%3Croot%3E%3CmxCell%20id%3D%220%22%2F%3E%3CmxCell%20id%3D%221%22%20parent%3D%220%22%2F%3E%3CmxCell%20id%3D%222%22%20value%3D%22%22%20style%3D%22endArrow%3Dnone%3Bhtml%3D1%3BentryX%3D1%3BentryY%3D1%3BentryDx%3D0%3BentryDy%3D0%3Bmovable%3D0%3Bresizable%3D0%3Brotatable%3D0%3Bdeletable%3D0%3Beditable%3D0%3Bconnectable%3D0%3B%22%20edge%3D%221%22%20parent%3D%221%22%3E%3CmxGeometry%20width%3D%2250%22%20height%3D%2250%22%20relative%3D%221%22%20as%3D%22geometry%22%3E%3CmxPoint%20x%3D%229%22%20y%3D%22813%22%20as%3D%22sourcePoint%22%2F%3E%3CmxPoint%20x%3D%221155%22%20y%3D%22813%22%20as%3D%22targetPoint%22%2F%3E%3C%2FmxGeometry%3E%3C%2FmxCell%3E%3C%2Froot%3E%3C%2FmxGraphModel%3E&lt;/span&gt;&lt;span style=&quot;font-size: 40px;&quot;&gt;atic - Plumbing Schematic&lt;/span&gt;" style="text;html=1;strokeColor=none;fillColor=none;align=center;verticalAlign=middle;whiteSpace=wrap;rounded=0;fontSize=40;perimeterSpacing=0;fontStyle=4" vertex="1" parent="1">
          <mxGeometry x="152" y="50" width="865" height="30" as="geometry" />
        </mxCell>
        <mxCell id="54yuC4Lk0FtonxKzlv9x-108" value="" style="endArrow=none;html=1;rounded=1;exitX=0.5;exitY=0;exitDx=0;exitDy=0;entryX=0.5;entryY=1;entryDx=0;entryDy=0;strokeColor=#FF8000;strokeWidth=4;startArrow=none;" edge="1" parent="1" target="54yuC4Lk0FtonxKzlv9x-109">
          <mxGeometry width="50" height="50" relative="1" as="geometry">
            <mxPoint x="123" y="562" as="sourcePoint" />
            <mxPoint x="257" y="432" as="targetPoint" />
          </mxGeometry>
        </mxCell>
        <mxCell id="54yuC4Lk0FtonxKzlv9x-109" value="Sea Water&lt;br&gt;Strainer" style="rounded=1;whiteSpace=wrap;html=1;fillColor=#ffe6cc;strokeColor=#d79b00;" vertex="1" parent="1">
          <mxGeometry x="63" y="590" width="120" height="60" as="geometry" />
        </mxCell>
        <mxCell id="54yuC4Lk0FtonxKzlv9x-110" value="Manual&lt;div&gt;&amp;nbsp;3-Way&lt;br&gt;Selector&lt;br&gt;Valve&lt;/div&gt;" style="rounded=1;whiteSpace=wrap;html=1;fillColor=#f5f5f5;strokeColor=#666666;fontColor=#333333;" vertex="1" parent="1">
          <mxGeometry x="63" y="478" width="120" height="70" as="geometry" />
        </mxCell>
        <mxCell id="54yuC4Lk0FtonxKzlv9x-111" value="" style="endArrow=none;html=1;rounded=1;exitX=0.5;exitY=0;exitDx=0;exitDy=0;entryX=0.5;entryY=1;entryDx=0;entryDy=0;strokeColor=#FF8000;strokeWidth=4;" edge="1" parent="1" source="54yuC4Lk0FtonxKzlv9x-87" target="54yuC4Lk0FtonxKzlv9x-109">
          <mxGeometry width="50" height="50" relative="1" as="geometry">
            <mxPoint x="123" y="601.9999999999998" as="sourcePoint" />
            <mxPoint x="123" y="602" as="targetPoint" />
          </mxGeometry>
        </mxCell>
        <mxCell id="54yuC4Lk0FtonxKzlv9x-113" value="3-Way Tee" style="rounded=1;whiteSpace=wrap;html=1;fillColor=#f5f5f5;strokeColor=#666666;fontColor=#333333;fontSize=8;" vertex="1" parent="1">
          <mxGeometry x="140" y="278" width="80" height="40" as="geometry" />
        </mxCell>
        <mxCell id="54yuC4Lk0FtonxKzlv9x-114" value="" style="endArrow=none;html=1;rounded=0;strokeColor=#0000FF;strokeWidth=4;exitX=0.5;exitY=1;exitDx=0;exitDy=0;entryX=0.5;entryY=0;entryDx=0;entryDy=0;edgeStyle=orthogonalEdgeStyle;" edge="1" parent="1" source="54yuC4Lk0FtonxKzlv9x-113" target="54yuC4Lk0FtonxKzlv9x-93">
          <mxGeometry width="50" height="50" relative="1" as="geometry">
            <mxPoint x="283" y="518" as="sourcePoint" />
            <mxPoint x="273" y="354" as="targetPoint" />
          </mxGeometry>
        </mxCell>
        <mxCell id="54yuC4Lk0FtonxKzlv9x-117" value="10&quot;&amp;nbsp;&lt;br&gt;20 Micron&lt;br&gt;Filter" style="rounded=1;whiteSpace=wrap;html=1;fillColor=#f5f5f5;strokeColor=#666666;fontSize=9;fontColor=#333333;" vertex="1" parent="1">
          <mxGeometry x="371.5" y="268" width="60" height="60" as="geometry" />
        </mxCell>
        <mxCell id="54yuC4Lk0FtonxKzlv9x-131" value="Boost Pump&lt;div&gt;Shurflo&lt;/div&gt;" style="rounded=1;whiteSpace=wrap;html=1;fillColor=#dae8fc;strokeColor=#6c8ebf;arcSize=3;" vertex="1" parent="1">
          <mxGeometry x="240" y="268" width="110" height="60" as="geometry" />
        </mxCell>
        <mxCell id="54yuC4Lk0FtonxKzlv9x-132" value="" style="endArrow=none;html=1;rounded=1;entryX=0.5;entryY=0;entryDx=0;entryDy=0;strokeColor=#FF8000;strokeWidth=4;startArrow=none;exitX=0.5;exitY=1;exitDx=0;exitDy=0;" edge="1" parent="1" source="54yuC4Lk0FtonxKzlv9x-110" target="54yuC4Lk0FtonxKzlv9x-109">
          <mxGeometry width="50" height="50" relative="1" as="geometry">
            <mxPoint x="172" y="533" as="sourcePoint" />
            <mxPoint x="133" y="367" as="targetPoint" />
          </mxGeometry>
        </mxCell>
        <mxCell id="54yuC4Lk0FtonxKzlv9x-134" value="Low Pressure Sensor&lt;br style=&quot;font-size: 9px;&quot;&gt;0-50psi" style="rounded=1;whiteSpace=wrap;html=1;fillColor=#d5e8d4;strokeColor=#82b366;fontSize=9;" vertex="1" parent="1">
          <mxGeometry x="308" y="128" width="123" height="60" as="geometry" />
        </mxCell>
        <mxCell id="54yuC4Lk0FtonxKzlv9x-136" value="" style="endArrow=none;html=1;rounded=0;strokeColor=#0000FF;strokeWidth=4;entryX=0.5;entryY=1;entryDx=0;entryDy=0;exitX=0.5;exitY=0;exitDx=0;exitDy=0;" edge="1" parent="1" source="54yuC4Lk0FtonxKzlv9x-106" target="54yuC4Lk0FtonxKzlv9x-105">
          <mxGeometry width="50" height="50" relative="1" as="geometry">
            <mxPoint x="273" y="590" as="sourcePoint" />
            <mxPoint x="283" y="448" as="targetPoint" />
          </mxGeometry>
        </mxCell>
        <mxCell id="54yuC4Lk0FtonxKzlv9x-138" value="" style="endArrow=none;html=1;rounded=0;strokeColor=#0000FF;strokeWidth=4;exitX=0.5;exitY=0;exitDx=0;exitDy=0;entryX=0.5;entryY=1;entryDx=0;entryDy=0;" edge="1" parent="1" source="54yuC4Lk0FtonxKzlv9x-88" target="54yuC4Lk0FtonxKzlv9x-106">
          <mxGeometry width="50" height="50" relative="1" as="geometry">
            <mxPoint x="283" y="571.0000000000002" as="sourcePoint" />
            <mxPoint x="283" y="603" as="targetPoint" />
          </mxGeometry>
        </mxCell>
        <mxCell id="54yuC4Lk0FtonxKzlv9x-139" value="High Pressure&lt;br&gt;Needle Valve" style="rounded=1;whiteSpace=wrap;html=1;fillColor=#dae8fc;strokeColor=#6c8ebf;" vertex="1" parent="1">
          <mxGeometry x="688" y="470" width="100" height="60" as="geometry" />
        </mxCell>
        <mxCell id="54yuC4Lk0FtonxKzlv9x-141" value="High Pressure&lt;br&gt;Analog Gauge&lt;div&gt;(backup)&lt;/div&gt;" style="rounded=1;whiteSpace=wrap;html=1;fillColor=#dae8fc;strokeColor=#6c8ebf;" vertex="1" parent="1">
          <mxGeometry x="450" y="366" width="100" height="50" as="geometry" />
        </mxCell>
        <mxCell id="54yuC4Lk0FtonxKzlv9x-143" value="GD 20 VFD" style="rounded=1;whiteSpace=wrap;html=1;fillColor=#d5e8d4;strokeColor=#82b366;" vertex="1" parent="1">
          <mxGeometry x="540" y="188" width="90" height="40" as="geometry" />
        </mxCell>
        <mxCell id="54yuC4Lk0FtonxKzlv9x-148" value="Product&lt;br&gt;Water&lt;br&gt;Sample&lt;br&gt;Valve" style="rounded=1;whiteSpace=wrap;html=1;fillColor=#1ba1e2;strokeColor=#006EAF;fontColor=#ffffff;" vertex="1" parent="1">
          <mxGeometry x="1040" y="477" width="95" height="71" as="geometry" />
        </mxCell>
        <mxCell id="54yuC4Lk0FtonxKzlv9x-149" value="Product Water&lt;br&gt;Analog&lt;br&gt;Flow Meter" style="rounded=1;whiteSpace=wrap;html=1;fillColor=#dae8fc;strokeColor=#6c8ebf;" vertex="1" parent="1">
          <mxGeometry x="1018" y="264" width="100" height="60" as="geometry" />
        </mxCell>
        <mxCell id="54yuC4Lk0FtonxKzlv9x-157" value="Low Pressure&lt;br&gt;Analog Gauge&lt;div&gt;(backup)&lt;/div&gt;" style="rounded=1;whiteSpace=wrap;html=1;fillColor=#dae8fc;strokeColor=#6c8ebf;" vertex="1" parent="1">
          <mxGeometry x="308" y="200" width="123" height="50" as="geometry" />
        </mxCell>
        <mxCell id="54yuC4Lk0FtonxKzlv9x-161" value="Optional&lt;br&gt;Brine&lt;br&gt;Flowmeter" style="rounded=1;whiteSpace=wrap;html=1;fillColor=#d5e8d4;strokeColor=#82b366;fontSize=9;" vertex="1" parent="1">
          <mxGeometry x="592" y="541" width="70" height="54.5" as="geometry" />
        </mxCell>
        <mxCell id="xGo9mAzhHRWblN-cc9xw-13" value="Solenoid Valve&lt;br&gt;or motorized ball valve" style="rounded=1;whiteSpace=wrap;html=1;fillColor=#d5e8d4;strokeColor=#82b366;fontSize=9;" vertex="1" parent="1">
          <mxGeometry x="83" y="386.5" width="80" height="60" as="geometry" />
        </mxCell>
        <mxCell id="xGo9mAzhHRWblN-cc9xw-14" value="Reverse&lt;br&gt;Osmosis&lt;br&gt;Membrane" style="rounded=1;whiteSpace=wrap;html=1;fillColor=#dae8fc;strokeColor=#6c8ebf;" vertex="1" parent="1">
          <mxGeometry x="662" y="233" width="147" height="60" as="geometry" />
        </mxCell>
        <mxCell id="xGo9mAzhHRWblN-cc9xw-15" value="" style="endArrow=none;html=1;rounded=0;entryX=0.5;entryY=1;entryDx=0;entryDy=0;strokeWidth=4;strokeColor=#FF8000;" edge="1" parent="1" source="54yuC4Lk0FtonxKzlv9x-110" target="xGo9mAzhHRWblN-cc9xw-13">
          <mxGeometry width="50" height="50" relative="1" as="geometry">
            <mxPoint x="470" y="470" as="sourcePoint" />
            <mxPoint x="520" y="420" as="targetPoint" />
          </mxGeometry>
        </mxCell>
        <mxCell id="xGo9mAzhHRWblN-cc9xw-16" value="" style="endArrow=none;html=1;rounded=0;entryX=0;entryY=0.5;entryDx=0;entryDy=0;exitX=0.5;exitY=0;exitDx=0;exitDy=0;edgeStyle=orthogonalEdgeStyle;strokeWidth=4;strokeColor=#FF8000;" edge="1" parent="1" source="xGo9mAzhHRWblN-cc9xw-13" target="54yuC4Lk0FtonxKzlv9x-113">
          <mxGeometry width="50" height="50" relative="1" as="geometry">
            <mxPoint x="470" y="470" as="sourcePoint" />
            <mxPoint x="520" y="420" as="targetPoint" />
          </mxGeometry>
        </mxCell>
        <mxCell id="xGo9mAzhHRWblN-cc9xw-19" value="" style="endArrow=none;html=1;rounded=0;entryX=0.5;entryY=1;entryDx=0;entryDy=0;exitX=0;exitY=0.5;exitDx=0;exitDy=0;edgeStyle=orthogonalEdgeStyle;strokeWidth=4;strokeColor=#00FFFF;" edge="1" parent="1" source="54yuC4Lk0FtonxKzlv9x-110" target="54yuC4Lk0FtonxKzlv9x-90">
          <mxGeometry width="50" height="50" relative="1" as="geometry">
            <mxPoint x="470" y="470" as="sourcePoint" />
            <mxPoint x="520" y="420" as="targetPoint" />
          </mxGeometry>
        </mxCell>
        <mxCell id="xGo9mAzhHRWblN-cc9xw-20" value="" style="endArrow=none;html=1;rounded=0;entryX=0;entryY=0.5;entryDx=0;entryDy=0;exitX=1;exitY=0.5;exitDx=0;exitDy=0;strokeWidth=4;strokeColor=#FF8000;" edge="1" parent="1" source="54yuC4Lk0FtonxKzlv9x-113" target="54yuC4Lk0FtonxKzlv9x-131">
          <mxGeometry width="50" height="50" relative="1" as="geometry">
            <mxPoint x="470" y="470" as="sourcePoint" />
            <mxPoint x="520" y="420" as="targetPoint" />
          </mxGeometry>
        </mxCell>
        <mxCell id="xGo9mAzhHRWblN-cc9xw-21" value="" style="endArrow=none;html=1;rounded=0;entryX=0;entryY=0.5;entryDx=0;entryDy=0;exitX=1;exitY=0.5;exitDx=0;exitDy=0;strokeWidth=4;strokeColor=#FF8000;" edge="1" parent="1" source="54yuC4Lk0FtonxKzlv9x-131" target="54yuC4Lk0FtonxKzlv9x-117">
          <mxGeometry width="50" height="50" relative="1" as="geometry">
            <mxPoint x="470" y="470" as="sourcePoint" />
            <mxPoint x="520" y="420" as="targetPoint" />
          </mxGeometry>
        </mxCell>
        <mxCell id="xGo9mAzhHRWblN-cc9xw-22" value="&lt;div&gt;10&quot;&lt;/div&gt;5 Micron&lt;br&gt;Filter" style="rounded=1;whiteSpace=wrap;html=1;fillColor=#f5f5f5;strokeColor=#666666;fontSize=9;fontColor=#333333;" vertex="1" parent="1">
          <mxGeometry x="450" y="268" width="60" height="60" as="geometry" />
        </mxCell>
        <mxCell id="xGo9mAzhHRWblN-cc9xw-23" value="" style="endArrow=none;html=1;rounded=0;entryX=0;entryY=0.5;entryDx=0;entryDy=0;exitX=1;exitY=0.5;exitDx=0;exitDy=0;strokeWidth=4;strokeColor=#FF8000;" edge="1" parent="1" source="54yuC4Lk0FtonxKzlv9x-117" target="xGo9mAzhHRWblN-cc9xw-22">
          <mxGeometry width="50" height="50" relative="1" as="geometry">
            <mxPoint x="470" y="470" as="sourcePoint" />
            <mxPoint x="520" y="420" as="targetPoint" />
          </mxGeometry>
        </mxCell>
        <mxCell id="xGo9mAzhHRWblN-cc9xw-24" value="" style="endArrow=none;html=1;rounded=0;entryX=1;entryY=0.5;entryDx=0;entryDy=0;edgeStyle=orthogonalEdgeStyle;strokeWidth=4;strokeColor=#FF8000;" edge="1" parent="1" target="54yuC4Lk0FtonxKzlv9x-134">
          <mxGeometry width="50" height="50" relative="1" as="geometry">
            <mxPoint x="431" y="300" as="sourcePoint" />
            <mxPoint x="520" y="420" as="targetPoint" />
            <Array as="points">
              <mxPoint x="441" y="300" />
              <mxPoint x="441" y="158" />
            </Array>
          </mxGeometry>
        </mxCell>
        <mxCell id="xGo9mAzhHRWblN-cc9xw-25" value="" style="endArrow=none;html=1;rounded=0;entryX=1;entryY=0.5;entryDx=0;entryDy=0;exitX=1;exitY=0.5;exitDx=0;exitDy=0;edgeStyle=orthogonalEdgeStyle;strokeWidth=4;strokeColor=#FF8000;" edge="1" parent="1" source="54yuC4Lk0FtonxKzlv9x-134" target="54yuC4Lk0FtonxKzlv9x-157">
          <mxGeometry width="50" height="50" relative="1" as="geometry">
            <mxPoint x="470" y="470" as="sourcePoint" />
            <mxPoint x="520" y="420" as="targetPoint" />
          </mxGeometry>
        </mxCell>
        <mxCell id="xGo9mAzhHRWblN-cc9xw-26" value="" style="endArrow=none;html=1;rounded=0;entryX=0;entryY=0.5;entryDx=0;entryDy=0;exitX=1;exitY=0.5;exitDx=0;exitDy=0;strokeColor=#FF8000;strokeWidth=4;" edge="1" parent="1" source="xGo9mAzhHRWblN-cc9xw-22" target="54yuC4Lk0FtonxKzlv9x-89">
          <mxGeometry width="50" height="50" relative="1" as="geometry">
            <mxPoint x="470" y="470" as="sourcePoint" />
            <mxPoint x="520" y="420" as="targetPoint" />
          </mxGeometry>
        </mxCell>
        <mxCell id="xGo9mAzhHRWblN-cc9xw-28" value="" style="endArrow=none;html=1;rounded=0;entryX=0;entryY=0.5;entryDx=0;entryDy=0;exitX=1;exitY=0.5;exitDx=0;exitDy=0;edgeStyle=orthogonalEdgeStyle;strokeWidth=4;strokeColor=#CC0066;" edge="1" parent="1" source="54yuC4Lk0FtonxKzlv9x-89" target="xGo9mAzhHRWblN-cc9xw-14">
          <mxGeometry width="50" height="50" relative="1" as="geometry">
            <mxPoint x="470" y="470" as="sourcePoint" />
            <mxPoint x="520" y="420" as="targetPoint" />
          </mxGeometry>
        </mxCell>
        <mxCell id="xGo9mAzhHRWblN-cc9xw-35" value="" style="endArrow=none;html=1;rounded=0;entryX=1;entryY=0.5;entryDx=0;entryDy=0;exitX=0;exitY=0.5;exitDx=0;exitDy=0;edgeStyle=orthogonalEdgeStyle;strokeWidth=4;strokeColor=#CC0066;" edge="1" parent="1" source="54yuC4Lk0FtonxKzlv9x-95" target="xGo9mAzhHRWblN-cc9xw-14">
          <mxGeometry width="50" height="50" relative="1" as="geometry">
            <mxPoint x="470" y="470" as="sourcePoint" />
            <mxPoint x="520" y="420" as="targetPoint" />
          </mxGeometry>
        </mxCell>
        <mxCell id="xGo9mAzhHRWblN-cc9xw-36" value="" style="endArrow=none;html=1;rounded=0;entryX=1;entryY=0.5;entryDx=0;entryDy=0;exitX=0;exitY=0.5;exitDx=0;exitDy=0;edgeStyle=orthogonalEdgeStyle;strokeWidth=4;strokeColor=#CC0066;" edge="1" parent="1" source="54yuC4Lk0FtonxKzlv9x-139" target="54yuC4Lk0FtonxKzlv9x-95">
          <mxGeometry width="50" height="50" relative="1" as="geometry">
            <mxPoint x="470" y="470" as="sourcePoint" />
            <mxPoint x="520" y="420" as="targetPoint" />
            <Array as="points">
              <mxPoint x="650" y="500" />
              <mxPoint x="650" y="390" />
              <mxPoint x="819" y="390" />
              <mxPoint x="819" y="349" />
            </Array>
          </mxGeometry>
        </mxCell>
        <mxCell id="xGo9mAzhHRWblN-cc9xw-37" value="Tee" style="rounded=1;whiteSpace=wrap;html=1;fillColor=#f5f5f5;strokeColor=#666666;fontColor=#333333;" vertex="1" parent="1">
          <mxGeometry x="698" y="602" width="82" height="55" as="geometry" />
        </mxCell>
        <mxCell id="xGo9mAzhHRWblN-cc9xw-38" value="Pressure Relief Valve&lt;br&gt;1000psi" style="rounded=1;whiteSpace=wrap;html=1;fillColor=#dae8fc;strokeColor=#6c8ebf;" vertex="1" parent="1">
          <mxGeometry x="450" y="480" width="100" height="50" as="geometry" />
        </mxCell>
        <mxCell id="xGo9mAzhHRWblN-cc9xw-39" value="" style="endArrow=none;html=1;rounded=0;entryX=1;entryY=0.5;entryDx=0;entryDy=0;exitX=0;exitY=0.5;exitDx=0;exitDy=0;edgeStyle=orthogonalEdgeStyle;strokeColor=#CC0066;strokeWidth=4;" edge="1" parent="1" source="54yuC4Lk0FtonxKzlv9x-139" target="54yuC4Lk0FtonxKzlv9x-141">
          <mxGeometry width="50" height="50" relative="1" as="geometry">
            <mxPoint x="470" y="470" as="sourcePoint" />
            <mxPoint x="520" y="420" as="targetPoint" />
          </mxGeometry>
        </mxCell>
        <mxCell id="xGo9mAzhHRWblN-cc9xw-40" value="" style="endArrow=none;html=1;rounded=0;entryX=1;entryY=0.5;entryDx=0;entryDy=0;exitX=0;exitY=0.5;exitDx=0;exitDy=0;edgeStyle=orthogonalEdgeStyle;strokeColor=#CC0066;strokeWidth=4;" edge="1" parent="1" source="54yuC4Lk0FtonxKzlv9x-139" target="54yuC4Lk0FtonxKzlv9x-97">
          <mxGeometry width="50" height="50" relative="1" as="geometry">
            <mxPoint x="470" y="470" as="sourcePoint" />
            <mxPoint x="520" y="420" as="targetPoint" />
          </mxGeometry>
        </mxCell>
        <mxCell id="xGo9mAzhHRWblN-cc9xw-41" value="" style="endArrow=none;html=1;rounded=0;entryX=1;entryY=0.5;entryDx=0;entryDy=0;edgeStyle=orthogonalEdgeStyle;strokeColor=#CC0066;strokeWidth=4;" edge="1" parent="1" source="54yuC4Lk0FtonxKzlv9x-139" target="xGo9mAzhHRWblN-cc9xw-38">
          <mxGeometry width="50" height="50" relative="1" as="geometry">
            <mxPoint x="470" y="470" as="sourcePoint" />
            <mxPoint x="520" y="420" as="targetPoint" />
          </mxGeometry>
        </mxCell>
        <mxCell id="xGo9mAzhHRWblN-cc9xw-46" value="" style="endArrow=none;html=1;rounded=0;entryX=0.5;entryY=1;entryDx=0;entryDy=0;strokeColor=#00FF00;strokeWidth=4;" edge="1" parent="1" source="54yuC4Lk0FtonxKzlv9x-101" target="xGo9mAzhHRWblN-cc9xw-37">
          <mxGeometry width="50" height="50" relative="1" as="geometry">
            <mxPoint x="470" y="470" as="sourcePoint" />
            <mxPoint x="520" y="420" as="targetPoint" />
          </mxGeometry>
        </mxCell>
        <mxCell id="xGo9mAzhHRWblN-cc9xw-47" value="" style="endArrow=none;html=1;rounded=0;entryX=0.5;entryY=1;entryDx=0;entryDy=0;strokeColor=#00FF00;strokeWidth=4;" edge="1" parent="1" source="xGo9mAzhHRWblN-cc9xw-37" target="54yuC4Lk0FtonxKzlv9x-139">
          <mxGeometry width="50" height="50" relative="1" as="geometry">
            <mxPoint x="470" y="470" as="sourcePoint" />
            <mxPoint x="520" y="420" as="targetPoint" />
          </mxGeometry>
        </mxCell>
        <mxCell id="xGo9mAzhHRWblN-cc9xw-48" value="" style="endArrow=none;html=1;rounded=0;entryX=1;entryY=0.5;entryDx=0;entryDy=0;exitX=0.5;exitY=1;exitDx=0;exitDy=0;edgeStyle=orthogonalEdgeStyle;strokeWidth=4;strokeColor=#00FF00;" edge="1" parent="1" source="54yuC4Lk0FtonxKzlv9x-139" target="54yuC4Lk0FtonxKzlv9x-161">
          <mxGeometry width="50" height="50" relative="1" as="geometry">
            <mxPoint x="480" y="460" as="sourcePoint" />
            <mxPoint x="530" y="410" as="targetPoint" />
          </mxGeometry>
        </mxCell>
        <mxCell id="xGo9mAzhHRWblN-cc9xw-50" value="Tee" style="rounded=1;whiteSpace=wrap;html=1;fillColor=#f5f5f5;strokeColor=#666666;fontColor=#333333;" vertex="1" parent="1">
          <mxGeometry x="908" y="293" width="82" height="55" as="geometry" />
        </mxCell>
        <mxCell id="xGo9mAzhHRWblN-cc9xw-51" value="" style="endArrow=none;html=1;rounded=0;entryX=1;entryY=0.25;entryDx=0;entryDy=0;exitX=0.5;exitY=0;exitDx=0;exitDy=0;edgeStyle=orthogonalEdgeStyle;strokeColor=#999999;strokeWidth=4;" edge="1" parent="1" source="xGo9mAzhHRWblN-cc9xw-50" target="xGo9mAzhHRWblN-cc9xw-14">
          <mxGeometry width="50" height="50" relative="1" as="geometry">
            <mxPoint x="480" y="460" as="sourcePoint" />
            <mxPoint x="530" y="410" as="targetPoint" />
          </mxGeometry>
        </mxCell>
        <mxCell id="xGo9mAzhHRWblN-cc9xw-52" value="" style="endArrow=none;html=1;rounded=0;entryX=1;entryY=0.25;entryDx=0;entryDy=0;exitX=0;exitY=0.5;exitDx=0;exitDy=0;edgeStyle=orthogonalEdgeStyle;strokeColor=#999999;strokeWidth=4;" edge="1" parent="1" source="xGo9mAzhHRWblN-cc9xw-50" target="54yuC4Lk0FtonxKzlv9x-95">
          <mxGeometry width="50" height="50" relative="1" as="geometry">
            <mxPoint x="480" y="460" as="sourcePoint" />
            <mxPoint x="530" y="410" as="targetPoint" />
          </mxGeometry>
        </mxCell>
        <mxCell id="xGo9mAzhHRWblN-cc9xw-54" value="Manual&lt;div&gt;&amp;nbsp;3-Way&lt;br&gt;Selector&lt;br&gt;Valve&lt;/div&gt;" style="rounded=1;whiteSpace=wrap;html=1;fillColor=#f5f5f5;strokeColor=#666666;fontColor=#333333;" vertex="1" parent="1">
          <mxGeometry x="889" y="446.5" width="120" height="70" as="geometry" />
        </mxCell>
        <mxCell id="xGo9mAzhHRWblN-cc9xw-56" value="" style="endArrow=none;html=1;rounded=0;entryX=0.5;entryY=1;entryDx=0;entryDy=0;strokeColor=#999999;strokeWidth=4;" edge="1" parent="1" source="xGo9mAzhHRWblN-cc9xw-54" target="xGo9mAzhHRWblN-cc9xw-50">
          <mxGeometry width="50" height="50" relative="1" as="geometry">
            <mxPoint x="518" y="460" as="sourcePoint" />
            <mxPoint x="568" y="410" as="targetPoint" />
          </mxGeometry>
        </mxCell>
        <mxCell id="xGo9mAzhHRWblN-cc9xw-57" value="" style="endArrow=none;html=1;rounded=0;entryX=0.5;entryY=1;entryDx=0;entryDy=0;strokeColor=#999999;strokeWidth=4;" edge="1" parent="1" source="54yuC4Lk0FtonxKzlv9x-99" target="xGo9mAzhHRWblN-cc9xw-54">
          <mxGeometry width="50" height="50" relative="1" as="geometry">
            <mxPoint x="518" y="522.5" as="sourcePoint" />
            <mxPoint x="568" y="472.5" as="targetPoint" />
          </mxGeometry>
        </mxCell>
        <mxCell id="xGo9mAzhHRWblN-cc9xw-61" value="" style="endArrow=none;html=1;rounded=0;entryX=0.5;entryY=1;entryDx=0;entryDy=0;strokeColor=#999999;strokeWidth=4;" edge="1" parent="1" source="54yuC4Lk0FtonxKzlv9x-104" target="54yuC4Lk0FtonxKzlv9x-99">
          <mxGeometry width="50" height="50" relative="1" as="geometry">
            <mxPoint x="518" y="460" as="sourcePoint" />
            <mxPoint x="568" y="410" as="targetPoint" />
          </mxGeometry>
        </mxCell>
        <mxCell id="xGo9mAzhHRWblN-cc9xw-64" value="One-way valve" style="rounded=1;whiteSpace=wrap;html=1;fontSize=9;fillColor=#f5f5f5;fontColor=#333333;strokeColor=#666666;" vertex="1" parent="1">
          <mxGeometry x="792" y="613" width="80" height="33" as="geometry" />
        </mxCell>
        <mxCell id="xGo9mAzhHRWblN-cc9xw-65" value="" style="endArrow=none;html=1;rounded=0;exitX=1;exitY=0.5;exitDx=0;exitDy=0;edgeStyle=orthogonalEdgeStyle;strokeWidth=4;strokeColor=#999999;" edge="1" parent="1" source="xGo9mAzhHRWblN-cc9xw-54" target="54yuC4Lk0FtonxKzlv9x-148">
          <mxGeometry width="50" height="50" relative="1" as="geometry">
            <mxPoint x="480" y="460" as="sourcePoint" />
            <mxPoint x="530" y="410" as="targetPoint" />
          </mxGeometry>
        </mxCell>
        <mxCell id="xGo9mAzhHRWblN-cc9xw-66" value="" style="endArrow=none;html=1;rounded=0;entryX=0;entryY=0.5;entryDx=0;entryDy=0;exitX=0.5;exitY=1;exitDx=0;exitDy=0;edgeStyle=orthogonalEdgeStyle;strokeWidth=4;strokeColor=#999999;" edge="1" parent="1" source="xGo9mAzhHRWblN-cc9xw-50" target="54yuC4Lk0FtonxKzlv9x-100">
          <mxGeometry width="50" height="50" relative="1" as="geometry">
            <mxPoint x="480" y="460" as="sourcePoint" />
            <mxPoint x="530" y="410" as="targetPoint" />
          </mxGeometry>
        </mxCell>
        <mxCell id="xGo9mAzhHRWblN-cc9xw-67" value="" style="endArrow=none;html=1;rounded=0;entryX=0;entryY=0.5;entryDx=0;entryDy=0;exitX=0.5;exitY=1;exitDx=0;exitDy=0;edgeStyle=orthogonalEdgeStyle;strokeWidth=4;strokeColor=#999999;" edge="1" parent="1" source="xGo9mAzhHRWblN-cc9xw-50" target="54yuC4Lk0FtonxKzlv9x-149">
          <mxGeometry width="50" height="50" relative="1" as="geometry">
            <mxPoint x="480" y="460" as="sourcePoint" />
            <mxPoint x="530" y="410" as="targetPoint" />
          </mxGeometry>
        </mxCell>
        <mxCell id="xGo9mAzhHRWblN-cc9xw-68" value="" style="endArrow=none;html=1;rounded=0;entryX=0;entryY=0.5;entryDx=0;entryDy=0;exitX=1;exitY=0.5;exitDx=0;exitDy=0;strokeColor=#999999;strokeWidth=4;" edge="1" parent="1" source="xGo9mAzhHRWblN-cc9xw-37" target="xGo9mAzhHRWblN-cc9xw-64">
          <mxGeometry width="50" height="50" relative="1" as="geometry">
            <mxPoint x="480" y="460" as="sourcePoint" />
            <mxPoint x="810" y="570" as="targetPoint" />
          </mxGeometry>
        </mxCell>
        <mxCell id="xGo9mAzhHRWblN-cc9xw-69" value="" style="endArrow=none;html=1;rounded=0;entryX=0;entryY=0.5;entryDx=0;entryDy=0;exitX=1;exitY=0.5;exitDx=0;exitDy=0;edgeStyle=orthogonalEdgeStyle;strokeColor=#999999;strokeWidth=4;" edge="1" parent="1" source="xGo9mAzhHRWblN-cc9xw-64" target="54yuC4Lk0FtonxKzlv9x-99">
          <mxGeometry width="50" height="50" relative="1" as="geometry">
            <mxPoint x="480" y="460" as="sourcePoint" />
            <mxPoint x="530" y="410" as="targetPoint" />
          </mxGeometry>
        </mxCell>
        <mxCell id="xGo9mAzhHRWblN-cc9xw-70" value="Legend:" style="rounded=0;whiteSpace=wrap;html=1;verticalAlign=top;movable=1;resizable=1;rotatable=1;deletable=1;editable=1;connectable=1;" vertex="1" parent="1">
          <mxGeometry x="350" y="601" width="260" height="210" as="geometry" />
        </mxCell>
        <mxCell id="xGo9mAzhHRWblN-cc9xw-71" value="" style="endArrow=none;html=1;rounded=1;exitX=0.5;exitY=0;exitDx=0;exitDy=0;strokeColor=#FF8000;strokeWidth=4;" edge="1" parent="1">
          <mxGeometry width="50" height="50" relative="1" as="geometry">
            <mxPoint x="370" y="651" as="sourcePoint" />
            <mxPoint x="440" y="651" as="targetPoint" />
          </mxGeometry>
        </mxCell>
        <mxCell id="xGo9mAzhHRWblN-cc9xw-72" value="Sea Water -&amp;nbsp; Low Pressure" style="edgeLabel;html=1;align=left;verticalAlign=middle;resizable=0;points=[];" vertex="1" connectable="0" parent="xGo9mAzhHRWblN-cc9xw-71">
          <mxGeometry x="0.4571" y="-1" relative="1" as="geometry">
            <mxPoint x="29" y="-1" as="offset" />
          </mxGeometry>
        </mxCell>
        <mxCell id="xGo9mAzhHRWblN-cc9xw-73" value="" style="endArrow=none;html=1;rounded=0;strokeColor=#0000FF;strokeWidth=4;entryX=0.5;entryY=0;entryDx=0;entryDy=0;" edge="1" parent="1">
          <mxGeometry width="50" height="50" relative="1" as="geometry">
            <mxPoint x="440" y="711" as="sourcePoint" />
            <mxPoint x="370" y="711" as="targetPoint" />
          </mxGeometry>
        </mxCell>
        <mxCell id="xGo9mAzhHRWblN-cc9xw-74" value="Freshwater - Low Pressure" style="edgeLabel;html=1;align=left;verticalAlign=middle;resizable=0;points=[];" vertex="1" connectable="0" parent="xGo9mAzhHRWblN-cc9xw-73">
          <mxGeometry x="-0.2857" y="1" relative="1" as="geometry">
            <mxPoint x="35" y="-2" as="offset" />
          </mxGeometry>
        </mxCell>
        <mxCell id="xGo9mAzhHRWblN-cc9xw-75" value="" style="endArrow=none;html=1;rounded=0;strokeColor=#CC0066;strokeWidth=4;" edge="1" parent="1">
          <mxGeometry width="50" height="50" relative="1" as="geometry">
            <mxPoint x="370" y="681" as="sourcePoint" />
            <mxPoint x="440" y="681" as="targetPoint" />
          </mxGeometry>
        </mxCell>
        <mxCell id="xGo9mAzhHRWblN-cc9xw-76" value="Sea Water - High Pressure" style="edgeLabel;html=1;align=left;verticalAlign=middle;resizable=0;points=[];" vertex="1" connectable="0" parent="xGo9mAzhHRWblN-cc9xw-75">
          <mxGeometry x="0.4662" y="1" relative="1" as="geometry">
            <mxPoint x="28" y="1" as="offset" />
          </mxGeometry>
        </mxCell>
        <mxCell id="xGo9mAzhHRWblN-cc9xw-77" value="" style="endArrow=none;html=1;rounded=1;strokeColor=#999999;strokeWidth=4;" edge="1" parent="1">
          <mxGeometry width="50" height="50" relative="1" as="geometry">
            <mxPoint x="440" y="741" as="sourcePoint" />
            <mxPoint x="370" y="741" as="targetPoint" />
          </mxGeometry>
        </mxCell>
        <mxCell id="xGo9mAzhHRWblN-cc9xw-78" value="Product Water" style="edgeLabel;html=1;align=left;verticalAlign=middle;resizable=0;points=[];" vertex="1" connectable="0" parent="xGo9mAzhHRWblN-cc9xw-77">
          <mxGeometry x="-0.6617" y="-2" relative="1" as="geometry">
            <mxPoint x="22" y="2" as="offset" />
          </mxGeometry>
        </mxCell>
        <mxCell id="xGo9mAzhHRWblN-cc9xw-79" value="" style="endArrow=none;html=1;rounded=0;strokeColor=#00FF00;strokeWidth=4;" edge="1" parent="1">
          <mxGeometry width="50" height="50" relative="1" as="geometry">
            <mxPoint x="370" y="770.47" as="sourcePoint" />
            <mxPoint x="440" y="770.47" as="targetPoint" />
          </mxGeometry>
        </mxCell>
        <mxCell id="xGo9mAzhHRWblN-cc9xw-80" value="Waste Brine" style="edgeLabel;html=1;align=left;verticalAlign=middle;resizable=0;points=[];" vertex="1" connectable="0" parent="xGo9mAzhHRWblN-cc9xw-79">
          <mxGeometry x="0.6579" y="-1" relative="1" as="geometry">
            <mxPoint x="23" y="-1" as="offset" />
          </mxGeometry>
        </mxCell>
        <mxCell id="xGo9mAzhHRWblN-cc9xw-81" value="" style="endArrow=none;html=1;rounded=1;exitX=0.5;exitY=0;exitDx=0;exitDy=0;strokeColor=#00FFFF;strokeWidth=4;" edge="1" parent="1">
          <mxGeometry width="50" height="50" relative="1" as="geometry">
            <mxPoint x="370" y="799" as="sourcePoint" />
            <mxPoint x="440" y="799" as="targetPoint" />
          </mxGeometry>
        </mxCell>
        <mxCell id="xGo9mAzhHRWblN-cc9xw-82" value="Pickling Liquid -&amp;nbsp; Low Pressure" style="edgeLabel;html=1;align=left;verticalAlign=middle;resizable=0;points=[];" vertex="1" connectable="0" parent="xGo9mAzhHRWblN-cc9xw-81">
          <mxGeometry x="0.4571" y="-1" relative="1" as="geometry">
            <mxPoint x="29" y="-1" as="offset" />
          </mxGeometry>
        </mxCell>
        <mxCell id="xGo9mAzhHRWblN-cc9xw-83" value="" style="endArrow=none;html=1;entryX=1;entryY=1;entryDx=0;entryDy=0;movable=0;resizable=0;rotatable=0;deletable=0;editable=0;connectable=0;" edge="1" parent="1">
          <mxGeometry width="50" height="50" relative="1" as="geometry">
            <mxPoint x="9" y="813" as="sourcePoint" />
            <mxPoint x="1155" y="813" as="targetPoint" />
          </mxGeometry>
        </mxCell>
        <mxCell id="xGo9mAzhHRWblN-cc9xw-84" value="" style="endArrow=none;html=1;movable=0;resizable=0;rotatable=0;deletable=0;editable=0;connectable=0;" edge="1" parent="1">
          <mxGeometry width="50" height="50" relative="1" as="geometry">
            <mxPoint x="9" y="813" as="sourcePoint" />
            <mxPoint x="9" y="9" as="targetPoint" />
          </mxGeometry>
        </mxCell>
        <mxCell id="xGo9mAzhHRWblN-cc9xw-85" value="" style="endArrow=none;html=1;movable=0;resizable=0;rotatable=0;deletable=0;editable=0;connectable=0;" edge="1" parent="1">
          <mxGeometry width="50" height="50" relative="1" as="geometry">
            <mxPoint x="1155" y="9" as="sourcePoint" />
            <mxPoint x="9" y="9" as="targetPoint" />
          </mxGeometry>
        </mxCell>
        <mxCell id="xGo9mAzhHRWblN-cc9xw-86" value="" style="endArrow=none;html=1;entryX=1;entryY=1;entryDx=0;entryDy=0;movable=0;resizable=0;rotatable=0;deletable=0;editable=0;connectable=0;" edge="1" parent="1">
          <mxGeometry width="50" height="50" relative="1" as="geometry">
            <mxPoint x="1155" y="9" as="sourcePoint" />
            <mxPoint x="1155" y="813" as="targetPoint" />
          </mxGeometry>
        </mxCell>
        <mxCell id="xGo9mAzhHRWblN-cc9xw-92" value="2.3kW motor" style="rounded=1;whiteSpace=wrap;html=1;fillColor=#d5e8d4;strokeColor=#82b366;" vertex="1" parent="1">
          <mxGeometry x="540" y="228" width="90" height="40" as="geometry" />
        </mxCell>
        <mxCell id="xGo9mAzhHRWblN-cc9xw-97" value="Author: Steen Hadsbjerg" style="rounded=0;whiteSpace=wrap;html=1;fillColor=none;align=left;movable=0;resizable=0;rotatable=0;deletable=0;editable=0;connectable=0;locked=1;" vertex="1" parent="1">
          <mxGeometry x="937" y="775" width="216" height="18" as="geometry" />
        </mxCell>
        <mxCell id="xGo9mAzhHRWblN-cc9xw-98" value="Aqua-O-Matic" style="rounded=0;whiteSpace=wrap;html=1;fillColor=none;align=left;movable=0;resizable=0;rotatable=0;deletable=0;editable=0;connectable=0;locked=1;" vertex="1" parent="1">
          <mxGeometry x="937" y="757" width="216" height="18" as="geometry" />
        </mxCell>
        <mxCell id="xGo9mAzhHRWblN-cc9xw-99" value="Revision B" style="rounded=0;whiteSpace=wrap;html=1;fillColor=none;align=left;movable=0;resizable=0;rotatable=0;deletable=0;editable=0;connectable=0;locked=1;" vertex="1" parent="1">
          <mxGeometry x="1045" y="793" width="108" height="18" as="geometry" />
        </mxCell>
        <mxCell id="xGo9mAzhHRWblN-cc9xw-100" value="22 Oct 2025" style="rounded=0;whiteSpace=wrap;html=1;fillColor=none;align=left;movable=0;resizable=0;rotatable=0;deletable=0;editable=0;connectable=0;locked=1;" vertex="1" parent="1">
          <mxGeometry x="937" y="793" width="108" height="18" as="geometry" />
        </mxCell>
      </root>
    </mxGraphModel>
  </diagram>
  <diagram id="ZoRXD8eF82gNs9jJluqA" name="Electrical - Control Board">
    <mxGraphModel dx="1426" dy="841" grid="1" gridSize="10" guides="1" tooltips="1" connect="1" arrows="1" fold="1" page="1" pageScale="1" pageWidth="1169" pageHeight="827" math="0" shadow="0">
      <root>
        <mxCell id="0" />
        <mxCell id="1" parent="0" />
      </root>
    </mxGraphModel>
  </diagram>
  <diagram id="_45KuYhjzz-HIMXhBfma" name="Electrical - Low Voltage">
    <mxGraphModel dx="1426" dy="841" grid="1" gridSize="10" guides="1" tooltips="1" connect="1" arrows="1" fold="1" page="1" pageScale="1" pageWidth="1169" pageHeight="827" math="0" shadow="0">
      <root>
        <mxCell id="0" />
        <mxCell id="1" parent="0" />
      </root>
    </mxGraphModel>
  </diagram>
  <diagram id="UntdpLGKVkHwBIcnDH2k" name="Electrical - High Voltage">
    <mxGraphModel dx="1426" dy="841" grid="1" gridSize="10" guides="1" tooltips="1" connect="1" arrows="1" fold="1" page="1" pageScale="1" pageWidth="1169" pageHeight="827" math="0" shadow="0">
      <root>
        <mxCell id="0" />
        <mxCell id="1" parent="0" />
      </root>
    </mxGraphModel>
  </diagram>
  <diagram id="ieFlHofgNH5azMxKc_Rc" name="State Machine">
    <mxGraphModel dx="1426" dy="841" grid="1" gridSize="10" guides="1" tooltips="1" connect="1" arrows="1" fold="1" page="1" pageScale="1" pageWidth="1169" pageHeight="827" math="0" shadow="0">
      <root>
        <mxCell id="0" />
        <mxCell id="1" parent="0" />
      </root>
    </mxGraphModel>
  </diagram>
</mxfile>
